<svg width="436" height="58" viewBox="0 0 436 58" fill="none" xmlns="http://www.w3.org/2000/svg">
<g clip-path="url(#clip0_155_350)">
<mask id="mask0_155_350" style="mask-type:luminance" maskUnits="userSpaceOnUse" x="0" y="0" width="436" height="58">
<path d="M436 0H0V57.2211H436V0Z" fill="white"/>
</mask>
<g mask="url(#mask0_155_350)">
<path d="M0 37.1938H7.07313V44.3465H0V37.1938Z" fill="#16489F"/>
<path d="M1.28158e-06 29.4688H33.1023V37.5259H20.5234V49.1638H33.1023V57.2211H0L3.7207e-07 49.1638H13.5246V37.5259H9.09507e-07L1.28158e-06 29.4688Z" fill="#16489F"/>
<path fill-rule="evenodd" clip-rule="evenodd" d="M31.3049 19.9464C32.5029 17.7052 33.1023 14.7688 33.1023 11.6312H25.7525C25.7525 13.2015 25.6996 15.1234 25.1007 16.1992C24.5332 17.2749 23.3564 18.544 22.0639 19.1715C20.7714 19.829 19.0531 20.1577 16.9093 20.1577H16.0719C13.9282 20.1577 12.21 19.829 10.9174 19.1715C9.62483 18.544 8.44814 17.2749 7.88069 16.1992C7.28168 15.1234 7.22883 13.2015 7.22883 11.6312V8.27941H21.4419L21.5023 0H0V11.4299C5.38365e-06 14.6572 0.614775 17.4213 1.84427 19.7222C3.10529 22.053 4.94961 23.8309 7.37708 25.056C9.80457 26.2812 12.7837 26.8939 16.3146 26.8939H17.2603C20.6222 26.8939 23.4509 26.3322 25.7462 25.2088C25.8185 25.1734 25.8903 25.1374 25.9616 25.1009C28.326 23.9056 30.107 22.1874 31.3049 19.9464Z" fill="#16489F"/>
<path d="M25.7461 29.4691L33.1022 29.469V11.6313C33.1022 14.769 32.5028 17.7054 31.3048 19.9465C30.1068 22.1876 28.3259 23.9058 25.9616 25.101C25.8903 25.1376 25.8184 25.1735 25.7461 25.209V29.4691Z" fill="#16489F"/>
<path d="M45.9258 20.1124V0.283273H52.7917C54.4358 0.283273 55.8002 0.547657 56.8836 1.07644C57.9859 1.58633 58.8173 2.29451 59.3777 3.20098C59.9383 4.0886 60.2183 5.09891 60.2183 6.23201C60.2183 7.55391 59.8262 8.71535 59.0413 9.71627C58.2751 10.6982 57.1356 11.3876 55.6225 11.7841L60.779 20.1124H57.6683L52.988 12.1241H48.56V20.1124H45.9258ZM48.56 9.8579H52.5117C54.324 9.8579 55.6225 9.52744 56.4071 8.86644C57.1917 8.18659 57.5842 7.30843 57.5842 6.23201C57.5842 5.15556 57.1917 4.28689 56.4071 3.62589C55.6225 2.94604 54.324 2.60611 52.5117 2.60611H48.56V9.8579ZM74.0886 20.3957C72.5376 20.3957 71.1834 20.0935 70.0248 19.4892C68.8665 18.866 67.9694 17.9312 67.3345 16.6848C66.6996 15.4195 66.3817 13.8237 66.3817 11.8975V0.283273H69.0159V11.8975C69.0159 14.0503 69.4644 15.6083 70.3612 16.5715C71.2579 17.5346 72.5006 18.0162 74.0886 18.0162C75.6764 18.0162 76.9191 17.5346 77.8158 16.5715C78.7126 15.6083 79.1611 14.0503 79.1611 11.8975V0.283273H81.7953V11.8975C81.7953 13.8237 81.4777 15.4195 80.8425 16.6848C80.2075 17.9312 79.3108 18.866 78.1522 19.4892C77.0127 20.0935 75.6579 20.3957 74.0886 20.3957ZM95.2606 20.3957C93.6913 20.3957 92.383 20.1502 91.3372 19.6591C90.3092 19.1681 89.5156 18.5072 88.955 17.6762C88.3946 16.8264 88.0207 15.8916 87.8343 14.8718H90.4685C90.6736 15.7405 91.1409 16.4865 91.8698 17.1097C92.5984 17.714 93.7283 18.0162 95.2606 18.0162C96.8301 18.0162 98.0161 17.714 98.8199 17.1097C99.6414 16.5053 100.053 15.7594 100.053 14.8718C100.053 14.1353 99.8848 13.5499 99.5484 13.1155C99.2123 12.6623 98.6517 12.2846 97.867 11.9824C97.1009 11.6614 96.0544 11.3498 94.7282 11.0476C93.2708 10.7266 92.075 10.3489 91.1409 9.91455C90.2066 9.48018 89.5156 8.89478 89.0671 8.15825C88.6189 7.42176 88.3946 6.44915 88.3946 5.24055C88.3946 4.25855 88.6654 3.38041 89.2073 2.60611C89.7679 1.81295 90.5615 1.1803 91.5895 0.708184C92.6168 0.236057 93.8404 0 95.2606 0C96.6619 0 97.8295 0.236057 98.7638 0.708184C99.6975 1.1803 100.426 1.81295 100.95 2.60611C101.473 3.38041 101.818 4.25855 101.987 5.24055H99.3525C99.1652 4.44737 98.7638 3.77698 98.1474 3.22932C97.5491 2.66276 96.5868 2.37949 95.2606 2.37949C93.9156 2.37949 92.8691 2.66276 92.1218 3.22932C91.3932 3.77698 91.0288 4.44737 91.0288 5.24055C91.0288 6.2792 91.4117 7.04404 92.1779 7.53506C92.9437 8.00716 94.1676 8.43207 95.8493 8.80979C97.0633 9.07418 98.1002 9.37634 98.96 9.71627C99.8377 10.0562 100.548 10.4622 101.09 10.9343C101.65 11.3876 102.052 11.9352 102.295 12.5773C102.556 13.2194 102.687 13.9842 102.687 14.8718C102.687 15.8916 102.388 16.8264 101.79 17.6762C101.211 18.5072 100.37 19.1681 99.2684 19.6591C98.1659 20.1502 96.8301 20.3957 95.2606 20.3957ZM115.148 20.3957C113.579 20.3957 112.271 20.1502 111.225 19.6591C110.197 19.1681 109.403 18.5072 108.843 17.6762C108.282 16.8264 107.908 15.8916 107.722 14.8718H110.356C110.562 15.7405 111.029 16.4865 111.757 17.1097C112.486 17.714 113.616 18.0162 115.148 18.0162C116.718 18.0162 117.904 17.714 118.707 17.1097C119.53 16.5053 119.941 15.7594 119.941 14.8718C119.941 14.1353 119.772 13.5499 119.436 13.1155C119.1 12.6623 118.539 12.2846 117.755 11.9824C116.988 11.6614 115.943 11.3498 114.616 11.0476C113.158 10.7266 111.963 10.3489 111.029 9.91455C110.094 9.48018 109.403 8.89478 108.955 8.15825C108.506 7.42176 108.282 6.44915 108.282 5.24055C108.282 4.25855 108.553 3.38041 109.095 2.60611C109.655 1.81295 110.45 1.1803 111.477 0.708184C112.504 0.236057 113.729 0 115.148 0C116.549 0 117.717 0.236057 118.651 0.708184C119.586 1.1803 120.314 1.81295 120.837 2.60611C121.36 3.38041 121.706 4.25855 121.874 5.24055H119.24C119.053 4.44737 118.651 3.77698 118.035 3.22932C117.437 2.66276 116.475 2.37949 115.148 2.37949C113.803 2.37949 112.757 2.66276 112.01 3.22932C111.281 3.77698 110.917 4.44737 110.917 5.24055C110.917 6.2792 111.299 7.04404 112.066 7.53506C112.832 8.00716 114.055 8.43207 115.737 8.80979C116.951 9.07418 117.988 9.37634 118.848 9.71627C119.726 10.0562 120.436 10.4622 120.977 10.9343C121.538 11.3876 121.94 11.9352 122.183 12.5773C122.444 13.2194 122.575 13.9842 122.575 14.8718C122.575 15.8916 122.276 16.8264 121.678 17.6762C121.099 18.5072 120.258 19.1681 119.156 19.6591C118.053 20.1502 116.718 20.3957 115.148 20.3957ZM129.15 20.1124V0.283273H131.785V20.1124H129.15ZM137.403 20.1124L144.914 0.283273H147.548L155.058 20.1124H152.2L150.322 15.1834H142.027L140.149 20.1124H137.403ZM142.896 12.8606H149.453L146.174 3.68254L142.896 12.8606ZM160.381 20.1124V0.283273H162.959L173.497 15.7217V0.283273H176.075V20.1124H173.497L162.959 4.674V20.1124H160.381ZM190.361 20.1124L197.871 0.283273H200.506L208.016 20.1124H205.158L203.28 15.1834H194.985L193.107 20.1124H190.361ZM195.854 12.8606H202.412L199.133 3.68254L195.854 12.8606ZM219.231 20.3957C217.661 20.3957 216.354 20.1502 215.307 19.6591C214.28 19.1681 213.486 18.5072 212.925 17.6762C212.365 16.8264 211.991 15.8916 211.804 14.8718H214.439C214.644 15.7405 215.111 16.4865 215.84 17.1097C216.568 17.714 217.699 18.0162 219.231 18.0162C220.8 18.0162 221.987 17.714 222.79 17.1097C223.612 16.5053 224.023 15.7594 224.023 14.8718C224.023 14.1353 223.855 13.5499 223.519 13.1155C223.182 12.6623 222.622 12.2846 221.837 11.9824C221.072 11.6614 220.025 11.3498 218.698 11.0476C217.241 10.7266 216.045 10.3489 215.111 9.91455C214.177 9.48018 213.486 8.89478 213.037 8.15825C212.589 7.42176 212.365 6.44915 212.365 5.24055C212.365 4.25855 212.636 3.38041 213.177 2.60611C213.738 1.81295 214.532 1.1803 215.56 0.708184C216.588 0.236057 217.811 0 219.231 0C220.632 0 221.8 0.236057 222.734 0.708184C223.668 1.1803 224.397 1.81295 224.92 2.60611C225.443 3.38041 225.789 4.25855 225.957 5.24055H223.323C223.136 4.44737 222.734 3.77698 222.117 3.22932C221.52 2.66276 220.557 2.37949 219.231 2.37949C217.886 2.37949 216.84 2.66276 216.092 3.22932C215.363 3.77698 214.999 4.44737 214.999 5.24055C214.999 6.2792 215.382 7.04404 216.148 7.53506C216.914 8.00716 218.138 8.43207 219.819 8.80979C221.034 9.07418 222.071 9.37634 222.93 9.71627C223.808 10.0562 224.518 10.4622 225.06 10.9343C225.62 11.3876 226.022 11.9352 226.265 12.5773C226.527 13.2194 226.657 13.9842 226.657 14.8718C226.657 15.8916 226.359 16.8264 225.761 17.6762C225.182 18.5072 224.341 19.1681 223.238 19.6591C222.137 20.1502 220.8 20.3957 219.231 20.3957ZM239.119 20.3957C237.55 20.3957 236.241 20.1502 235.195 19.6591C234.167 19.1681 233.374 18.5072 232.814 17.6762C232.253 16.8264 231.879 15.8916 231.692 14.8718H234.327C234.532 15.7405 234.999 16.4865 235.728 17.1097C236.457 17.714 237.587 18.0162 239.119 18.0162C240.688 18.0162 241.874 17.714 242.678 17.1097C243.5 16.5053 243.911 15.7594 243.911 14.8718C243.911 14.1353 243.743 13.5499 243.407 13.1155C243.071 12.6623 242.51 12.2846 241.725 11.9824C240.959 11.6614 239.913 11.3498 238.586 11.0476C237.129 10.7266 235.933 10.3489 234.999 9.91455C234.065 9.48018 233.374 8.89478 232.925 8.15825C232.477 7.42176 232.253 6.44915 232.253 5.24055C232.253 4.25855 232.524 3.38041 233.065 2.60611C233.626 1.81295 234.42 1.1803 235.448 0.708184C236.475 0.236057 237.699 0 239.119 0C240.52 0 241.688 0.236057 242.622 0.708184C243.556 1.1803 244.285 1.81295 244.808 2.60611C245.331 3.38041 245.677 4.25855 245.845 5.24055H243.211C243.023 4.44737 242.622 3.77698 242.006 3.22932C241.407 2.66276 240.445 2.37949 239.119 2.37949C237.774 2.37949 236.727 2.66276 235.98 3.22932C235.251 3.77698 234.887 4.44737 234.887 5.24055C234.887 6.2792 235.27 7.04404 236.036 7.53506C236.802 8.00716 238.026 8.43207 239.707 8.80979C240.922 9.07418 241.958 9.37634 242.818 9.71627C243.696 10.0562 244.406 10.4622 244.948 10.9343C245.508 11.3876 245.91 11.9352 246.153 12.5773C246.415 13.2194 246.545 13.9842 246.545 14.8718C246.545 15.8916 246.246 16.8264 245.649 17.6762C245.069 18.5072 244.229 19.1681 243.127 19.6591C242.024 20.1502 240.688 20.3957 239.119 20.3957ZM260.408 20.3957C259.287 20.3957 258.203 20.2068 257.157 19.8291C256.129 19.4325 255.205 18.8282 254.382 18.0162C253.56 17.2041 252.906 16.1654 252.421 14.9001C251.954 13.6349 251.72 12.1146 251.72 10.3395V9.77291C251.72 8.07327 251.954 6.60973 252.421 5.38219C252.906 4.15464 253.56 3.14433 254.382 2.35116C255.205 1.53912 256.129 0.944245 257.157 0.566546C258.203 0.188846 259.287 0 260.408 0C261.529 0 262.603 0.188846 263.631 0.566546C264.677 0.944245 265.611 1.53912 266.433 2.35116C267.255 3.14433 267.9 4.15464 268.367 5.38219C268.853 6.60973 269.095 8.07327 269.095 9.77291V10.3395C269.095 12.1146 268.853 13.6349 268.367 14.9001C267.9 16.1654 267.255 17.2041 266.433 18.0162C265.611 18.8282 264.677 19.4325 263.631 19.8291C262.603 20.2068 261.529 20.3957 260.408 20.3957ZM260.408 18.0162C261.435 18.0162 262.388 17.7612 263.266 17.2513C264.163 16.7414 264.892 15.9199 265.452 14.7868C266.013 13.6537 266.293 12.1713 266.293 10.3395V9.77291C266.293 8.0355 266.013 6.62858 265.452 5.55213C264.892 4.45683 264.163 3.65423 263.266 3.14433C262.388 2.63444 261.435 2.37949 260.408 2.37949C259.399 2.37949 258.446 2.63444 257.549 3.14433C256.652 3.65423 255.924 4.45683 255.363 5.55213C254.803 6.62858 254.523 8.0355 254.523 9.77291V10.3395C254.523 12.1713 254.803 13.6537 255.363 14.7868C255.924 15.9199 256.652 16.7414 257.549 17.2513C258.446 17.7612 259.399 18.0162 260.408 18.0162ZM282.694 20.3957C281.237 20.3957 279.882 20.0462 278.63 19.3475C277.379 18.6488 276.361 17.5629 275.576 16.0899C274.81 14.598 274.427 12.6812 274.427 10.3395V9.77291C274.427 8.07327 274.651 6.60973 275.1 5.38219C275.548 4.15464 276.155 3.14433 276.921 2.35116C277.687 1.558 278.565 0.972572 279.556 0.594874C280.564 0.198291 281.61 0 282.694 0C283.759 0 284.731 0.141636 285.609 0.424909C286.506 0.708183 287.29 1.11421 287.963 1.64298C288.636 2.17176 289.177 2.82328 289.588 3.59755C290.018 4.37187 290.289 5.25001 290.401 6.23201H287.599C287.337 4.94782 286.786 3.9847 285.945 3.34262C285.104 2.70053 284.02 2.37949 282.694 2.37949C281.778 2.37949 280.901 2.61555 280.06 3.08768C279.219 3.55979 278.537 4.34353 278.014 5.43884C277.491 6.51529 277.229 7.95997 277.229 9.77291V10.3395C277.229 11.7747 277.388 12.9833 277.706 13.9654C278.042 14.9474 278.481 15.7405 279.023 16.3448C279.565 16.9303 280.153 17.3552 280.788 17.6196C281.442 17.884 282.078 18.0162 282.694 18.0162C284.151 18.0162 285.291 17.6574 286.113 16.9397C286.935 16.2221 287.43 15.2967 287.599 14.1636H290.401C290.251 15.2589 289.953 16.2032 289.504 16.9964C289.056 17.7895 288.486 18.4411 287.795 18.9509C287.122 19.442 286.346 19.8102 285.469 20.0557C284.609 20.2823 283.684 20.3957 282.694 20.3957ZM296.838 20.1124V0.283273H299.471V20.1124H296.838ZM305.089 20.1124L312.601 0.283273H315.235L322.747 20.1124H319.887L318.008 15.1834H309.715L307.836 20.1124H305.089ZM310.583 12.8606H317.14L313.863 3.68254L310.583 12.8606ZM330.393 20.1124V2.60611H323.582V0.283273H339.835V2.60611H333.027V20.1124H330.393ZM345.445 20.1124V0.283273H348.078V20.1124H345.445ZM363.505 20.3957C362.384 20.3957 361.301 20.2068 360.254 19.8291C359.225 19.4325 358.301 18.8282 357.481 18.0162C356.658 17.2041 356.005 16.1654 355.519 14.9001C355.05 13.6349 354.818 12.1146 354.818 10.3395V9.77291C354.818 8.07327 355.05 6.60973 355.519 5.38219C356.005 4.15464 356.658 3.14433 357.481 2.35116C358.301 1.53912 359.225 0.944245 360.254 0.566546C361.301 0.188846 362.384 0 363.505 0C364.626 0 365.7 0.188846 366.729 0.566546C367.775 0.944245 368.709 1.53912 369.532 2.35116C370.352 3.14433 370.996 4.15464 371.464 5.38219C371.951 6.60973 372.192 8.07327 372.192 9.77291V10.3395C372.192 12.1146 371.951 13.6349 371.464 14.9001C370.996 16.1654 370.352 17.2041 369.532 18.0162C368.709 18.8282 367.775 19.4325 366.729 19.8291C365.7 20.2068 364.626 20.3957 363.505 20.3957ZM363.505 18.0162C364.534 18.0162 365.485 17.7612 366.365 17.2513C367.26 16.7414 367.99 15.9199 368.551 14.7868C369.111 13.6537 369.392 12.1713 369.392 10.3395V9.77291C369.392 8.0355 369.111 6.62858 368.551 5.55213C367.99 4.45683 367.26 3.65423 366.365 3.14433C365.485 2.63444 364.534 2.37949 363.505 2.37949C362.497 2.37949 361.543 2.63444 360.648 3.14433C359.75 3.65423 359.023 4.45683 358.462 5.55213C357.901 6.62858 357.621 8.0355 357.621 9.77291V10.3395C357.621 12.1713 357.901 13.6537 358.462 14.7868C359.023 15.9199 359.75 16.7414 360.648 17.2513C361.543 17.7612 362.497 18.0162 363.505 18.0162ZM378.646 20.1124V0.283273H381.222L391.761 15.7217V0.283273H394.338V20.1124H391.761L381.222 4.674V20.1124H378.646ZM45.9258 56.9377V37.1088H58.537V39.4317H48.56V45.8618H57.6963V48.1847H48.56V56.9377H45.9258ZM71.9844 57.2211C70.8634 57.2211 69.7799 57.0326 68.7335 56.6546C67.7061 56.258 66.7813 55.6536 65.9591 54.8416C65.1375 54.0297 64.4832 52.991 63.9974 51.7255C63.5304 50.4603 63.2966 48.94 63.2966 47.1649V46.5985C63.2966 44.8987 63.5304 43.435 63.9974 42.2078C64.4832 40.9803 65.1375 39.9698 65.9591 39.1766C66.7813 38.3646 67.7061 37.7698 68.7335 37.3919C69.7799 37.0142 70.8634 36.8254 71.9844 36.8254C73.1054 36.8254 74.1799 37.0142 75.2073 37.3919C76.2537 37.7698 77.1881 38.3646 78.0097 39.1766C78.8319 39.9698 79.4766 40.9803 79.9433 42.2078C80.4294 43.435 80.6722 44.8987 80.6722 46.5985V47.1649C80.6722 48.94 80.4294 50.4603 79.9433 51.7255C79.4766 52.991 78.8319 54.0297 78.0097 54.8416C77.1881 55.6536 76.2537 56.258 75.2073 56.6546C74.1799 57.0326 73.1054 57.2211 71.9844 57.2211ZM71.9844 54.8416C73.0124 54.8416 73.9652 54.5865 74.8428 54.0767C75.7396 53.5668 76.4684 52.7455 77.0288 51.6122C77.5895 50.4793 77.8695 48.9966 77.8695 47.1649V46.5985C77.8695 44.861 77.5895 43.454 77.0288 42.3777C76.4684 41.2823 75.7396 40.4797 74.8428 39.9698C73.9652 39.46 73.0124 39.2049 71.9844 39.2049C70.9755 39.2049 70.0227 39.46 69.1259 39.9698C68.2292 40.4797 67.5003 41.2823 66.94 42.3777C66.3793 43.454 66.0993 44.861 66.0993 46.5985V47.1649C66.0993 48.9966 66.3793 50.4793 66.94 51.6122C67.5003 52.7455 68.2292 53.5668 69.1259 54.0767C70.0227 54.5865 70.9755 54.8416 71.9844 54.8416ZM87.1245 56.9377V37.1088H93.9907C95.6345 37.1088 96.9989 37.3732 98.0824 37.9018C99.1849 38.4119 100.016 39.12 100.576 40.0265C101.137 40.914 101.417 41.9244 101.417 43.0574C101.417 44.3795 101.025 45.5408 100.24 46.5418C99.4739 47.5236 98.3343 48.213 96.8212 48.6096L101.978 56.9377H98.867L94.1867 48.9496H89.759V56.9377H87.1245ZM89.759 46.6834H93.7104C95.5224 46.6834 96.8212 46.353 97.6058 45.692C98.3904 45.0119 98.7829 44.134 98.7829 43.0574C98.7829 41.981 98.3904 41.1125 97.6058 40.4514C96.8212 39.7714 95.5224 39.4317 93.7104 39.4317H89.759V46.6834ZM117.102 56.9377V37.1088H122.847C124.809 37.1088 126.49 37.4675 127.892 38.1852C129.293 38.9028 130.368 39.9698 131.115 41.3862C131.862 42.7836 132.236 44.521 132.236 46.5985V47.1649C132.236 49.28 131.853 51.0647 131.087 52.5187C130.321 53.9731 129.209 55.0777 127.752 55.833C126.313 56.5697 124.585 56.9377 122.567 56.9377H117.102ZM119.737 54.6151H122.287C123.763 54.6151 125.033 54.3601 126.098 53.8502C127.163 53.3403 127.985 52.5377 128.564 51.4424C129.144 50.347 129.433 48.9213 129.433 47.1649V46.5985C129.433 44.8987 129.153 43.5296 128.592 42.4909C128.032 41.4332 127.238 40.6592 126.21 40.168C125.183 39.6771 123.968 39.4317 122.567 39.4317H119.737V54.6151ZM138.967 56.9377V37.1088H141.602V56.9377H138.967ZM156.888 57.2211C155.355 57.2211 153.936 56.8715 152.628 56.1731C151.339 55.4744 150.302 54.3884 149.517 52.9154C148.733 51.4234 148.34 49.5065 148.34 47.1649V46.5985C148.34 44.8987 148.564 43.435 149.013 42.2078C149.461 40.9803 150.078 39.9698 150.863 39.1766C151.666 38.3833 152.581 37.7982 153.609 37.4202C154.637 37.0239 155.729 36.8254 156.888 36.8254C157.841 36.8254 158.728 36.9672 159.55 37.2503C160.372 37.5148 161.11 37.9018 161.764 38.4119C162.418 38.9218 162.969 39.5449 163.418 40.2812C163.885 41.0179 164.23 41.8488 164.455 42.7743H161.652C161.39 41.9434 161.007 41.2633 160.503 40.7345C160.017 40.206 159.457 39.8187 158.822 39.5732C158.205 39.3278 157.561 39.2049 156.888 39.2049C155.879 39.2049 154.935 39.441 154.057 39.9132C153.179 40.3852 152.469 41.1691 151.927 42.2644C151.404 43.3408 151.143 44.7855 151.143 46.5985V47.1649C151.143 48.6003 151.311 49.8089 151.647 50.791C151.984 51.7728 152.422 52.566 152.964 53.1705C153.525 53.7556 154.141 54.1806 154.814 54.445C155.505 54.7097 156.196 54.8416 156.888 54.8416C157.934 54.8416 158.84 54.6531 159.606 54.2751C160.391 53.8785 161.017 53.2647 161.484 52.4338C161.969 51.5839 162.259 50.4886 162.353 49.1478H157.448V46.8816H164.875V47.7314C164.875 49.2611 164.688 50.6208 164.314 51.8107C163.959 52.9816 163.427 53.9731 162.717 54.785C162.026 55.5783 161.185 56.1827 160.195 56.598C159.223 57.0133 158.121 57.2211 156.888 57.2211ZM171.463 56.9377V37.1088H174.097V56.9377H171.463ZM186.525 56.9377V39.4317H179.715V37.1088H195.969V39.4317H189.159V56.9377H186.525ZM196.811 56.9377L204.322 37.1088H206.956L214.467 56.9377H211.608L209.73 52.0089H201.435L199.557 56.9377H196.811ZM202.304 49.686H208.862L205.583 40.508L202.304 49.686ZM219.789 56.9377V37.1088H222.423V54.6151H232.4V56.9377H219.789ZM246.702 56.9377V37.1088H249.336V45.5787H259.761V37.1088H262.396V56.9377H259.761V47.9013H249.336V56.9377H246.702ZM277.382 57.2211C275.832 57.2211 274.477 56.919 273.319 56.3146C272.161 55.6915 271.264 54.7567 270.628 53.5102C269.993 52.245 269.675 50.6491 269.675 48.7229V37.1088H272.31V48.7229C272.31 50.8759 272.758 52.4338 273.655 53.3969C274.552 54.3601 275.794 54.8416 277.382 54.8416C278.971 54.8416 280.213 54.3601 281.11 53.3969C282.006 52.4338 282.455 50.8759 282.455 48.7229V37.1088H285.089V48.7229C285.089 50.6491 284.772 52.245 284.136 53.5102C283.501 54.7567 282.605 55.6915 281.446 56.3146C280.306 56.919 278.952 57.2211 277.382 57.2211ZM292.389 56.9377V37.1088H295.136L301.693 49.7143L308.25 37.1088H310.887V56.9377H308.25V41.9244L302.617 52.6886H300.658L295.023 41.9244V56.9377H292.389ZM316.219 56.9377L323.731 37.1088H326.364L333.877 56.9377H331.017L329.138 52.0089H320.844L318.966 56.9377H316.219ZM321.712 49.686H328.27L324.993 40.508L321.712 49.686ZM339.197 56.9377V37.1088H341.777L352.313 52.547V37.1088H354.892V56.9377H352.313L341.777 41.4995V56.9377H339.197ZM362.733 56.9377V37.1088H365.366V56.9377H362.733ZM377.796 56.9377V39.4317H370.984V37.1088H387.237V39.4317H380.429V56.9377H377.796ZM392.847 56.9377V37.1088H395.48V56.9377H392.847ZM403.341 56.9377V37.1088H415.953V39.4317H405.975V45.5787H415.112V47.9013H405.975V54.6151H415.953V56.9377H403.341ZM428.574 57.2211C427.002 57.2211 425.696 56.9757 424.649 56.4845C423.623 55.9933 422.827 55.3328 422.267 54.5016C421.706 53.652 421.333 52.7172 421.145 51.6972H423.781C423.987 52.566 424.452 53.312 425.183 53.9351C425.911 54.5395 427.041 54.8416 428.574 54.8416C430.143 54.8416 431.329 54.5395 432.132 53.9351C432.955 53.3307 433.366 52.585 433.366 51.6972C433.366 50.9608 433.196 50.3754 432.859 49.9411C432.525 49.4878 431.965 49.1102 431.18 48.8078C430.414 48.4868 429.367 48.1754 428.04 47.873C426.582 47.5519 425.389 47.1743 424.452 46.74C423.519 46.3057 422.827 45.7203 422.38 44.9836C421.932 44.2473 421.706 43.2745 421.706 42.0659C421.706 41.0842 421.977 40.206 422.52 39.4317C423.081 38.6384 423.874 38.0057 424.903 37.5337C425.929 37.0615 427.154 36.8254 428.574 36.8254C429.976 36.8254 431.142 37.0615 432.075 37.5337C433.011 38.0057 433.739 38.6384 434.261 39.4317C434.786 40.206 435.132 41.0842 435.299 42.0659H432.665C432.478 41.273 432.075 40.6026 431.461 40.0548C430.861 39.4883 429.901 39.2049 428.574 39.2049C427.229 39.2049 426.182 39.4883 425.434 40.0548C424.706 40.6026 424.342 41.273 424.342 42.0659C424.342 43.1047 424.724 43.8696 425.49 44.3605C426.257 44.8327 427.479 45.2577 429.161 45.6353C430.375 45.8998 431.413 46.2018 432.272 46.5418C433.152 46.8816 433.861 47.2878 434.401 47.7598C434.962 48.213 435.364 48.7608 435.606 49.4029C435.868 50.045 436 50.8096 436 51.6972C436 52.7172 435.701 53.652 435.102 54.5016C434.523 55.3328 433.682 55.9933 432.582 56.4845C431.479 56.9757 430.143 57.2211 428.574 57.2211Z" fill="#252525"/>
</g>
</g>
<defs>
<clipPath id="clip0_155_350">
<rect width="436" height="57.2211" fill="white"/>
</clipPath>
</defs>
</svg>
